<svg width="629" height="314" viewBox="0 0 629 314" fill="none" xmlns="http://www.w3.org/2000/svg">
<path d="M407.666 0.391006H112.875C50.637 0.391006 0 51.025 0 113.263C0 175.503 50.637 226.141 112.875 226.141H407.666C469.895 226.141 520.532 175.503 520.532 113.263C520.532 51.025 469.9 0.391006 407.666 0.391006ZM142.727 45.363C64.141 45.363 58.747 87.173 58.706 87.601C58.088 93.34 53.239 97.602 47.585 97.602C47.192 97.602 46.787 97.584 46.388 97.534C40.232 96.881 35.784 91.354 36.443 85.214C36.715 82.669 44.245 22.973 142.727 22.973C148.907 22.973 153.925 27.985 153.925 34.171C153.925 40.357 148.913 45.363 142.727 45.363ZM407.666 198.153H312.515V28.379H407.666C454.474 28.379 492.551 66.462 492.551 113.263C492.55 160.07 454.473 198.153 407.666 198.153Z" fill="black"/>
<path d="M580.788 111.903L520.5 172.205L460.197 111.901L460.148 111.852L460.098 111.804C455.657 107.515 449.709 105.141 443.535 105.195C437.362 105.249 431.456 107.725 427.091 112.091C422.725 116.456 420.249 122.362 420.195 128.535C420.141 134.709 422.515 140.657 426.804 145.098L426.852 145.148L426.901 145.197L487.205 205.5L426.903 265.788C422.485 270.203 420.002 276.192 420 282.437C419.998 288.683 422.477 294.673 426.891 299.091C431.306 303.509 437.295 305.992 443.541 305.995C449.786 305.997 455.777 303.518 460.195 299.103L460.197 299.101L520.5 238.797L580.789 299.1L580.79 299.101C585.207 303.518 591.198 306 597.445 306C603.693 306 609.684 303.518 614.101 299.101C618.518 294.684 621 288.693 621 282.445C621 276.198 618.518 270.207 614.101 265.79L614.1 265.789L553.797 205.5L614.101 145.197L614.103 145.195C616.289 143.007 618.023 140.411 619.205 137.553C620.388 134.696 620.996 131.633 620.995 128.541C620.993 125.448 620.383 122.386 619.199 119.53C618.014 116.673 616.279 114.077 614.091 111.891C611.904 109.706 609.307 107.972 606.45 106.789C603.592 105.607 600.53 104.999 597.437 105C594.345 105.001 591.283 105.611 588.426 106.796C585.569 107.98 582.974 109.716 580.788 111.903Z" fill="#CF2207" stroke="#CF2207" stroke-width="16"/>
</svg>